<?xml version="1.0" encoding="UTF-8" standalone="no"?>
<svg xmlns:dc="http://purl.org/dc/elements/1.1/"
     xmlns:cc="http://creativecommons.org/ns#"
     xmlns:rdf="http://www.w3.org/1999/02/22-rdf-syntax-ns#"
     xmlns="http://www.w3.org/2000/svg"
     viewBox="613.70 2187.42 758.24 668.44"
     width="758.24" height="668.44"
     id="rompy_trunk" version="1.1">
  <!-- Rompy sprite: trunk -->
  <!-- Original coords: x=634-1352, y=2207-2836 in 5000x5000 space -->
  <g id="pixels">
    <rect x="813.262" y="2566.540" width="89.781" height="89.769" fill="#999999"/>
    <rect x="723.483" y="2297.199" width="89.781" height="89.789" fill="#999999"/>
    <rect x="813.264" y="2297.199" width="89.781" height="89.789" fill="#999999"/>
    <rect x="903.046" y="2297.199" width="89.776" height="89.789" fill="#999999"/>
    <rect x="813.262" y="2386.980" width="89.782" height="89.789" fill="#999999"/>
    <rect x="633.705" y="2656.321" width="89.776" height="89.779" fill="#000000"/>
    <rect x="723.484" y="2207.419" width="89.781" height="89.774" fill="#000000"/>
    <rect x="813.265" y="2207.419" width="89.782" height="89.774" fill="#000000"/>
    <rect x="633.707" y="2297.199" width="89.776" height="89.789" fill="#000000"/>
    <rect x="992.822" y="2297.199" width="89.781" height="89.789" fill="#000000"/>
    <rect x="633.706" y="2386.980" width="89.776" height="89.789" fill="#000000"/>
    <rect x="903.044" y="2386.980" width="89.774" height="89.789" fill="#000000"/>
    <rect x="1262.156" y="2386.980" width="89.780" height="89.789" fill="#000000"/>
    <rect x="633.705" y="2476.760" width="89.776" height="89.769" fill="#000000"/>
    <rect x="813.262" y="2476.760" width="89.781" height="89.769" fill="#000000"/>
    <rect x="1262.157" y="2476.760" width="89.775" height="89.769" fill="#000000"/>
    <rect x="633.706" y="2566.540" width="89.775" height="89.769" fill="#000000"/>
    <rect x="903.043" y="2566.540" width="89.775" height="89.769" fill="#000000"/>
    <rect x="992.819" y="2566.540" width="89.781" height="89.769" fill="#000000"/>
    <rect x="1082.600" y="2566.540" width="89.775" height="89.769" fill="#000000"/>
    <rect x="1172.375" y="2566.540" width="89.781" height="89.769" fill="#000000"/>
    <rect x="1172.376" y="2656.321" width="89.780" height="89.779" fill="#000000"/>
    <rect x="723.486" y="2746.080" width="89.782" height="89.783" fill="#000000"/>
    <rect x="723.481" y="2386.980" width="89.780" height="89.789" fill="#cccccc"/>
    <rect x="723.481" y="2476.760" width="89.781" height="89.769" fill="#cccccc"/>
    <rect x="723.481" y="2566.540" width="89.781" height="89.769" fill="#cccccc"/>
    <rect x="1262.156" y="2566.540" width="89.775" height="89.769" fill="#cccccc"/>
    <rect x="813.262" y="2656.321" width="89.782" height="89.779" fill="#cccccc"/>
    <rect x="903.038" y="2656.321" width="89.782" height="89.779" fill="#cccccc"/>
    <rect x="992.820" y="2656.321" width="89.780" height="89.779" fill="#cccccc"/>
    <rect x="1082.600" y="2656.321" width="89.776" height="89.779" fill="#cccccc"/>
    <rect x="1262.156" y="2656.321" width="89.776" height="89.779" fill="#cccccc"/>
    <rect x="813.268" y="2746.080" width="89.782" height="89.783" fill="#cccccc"/>
    <rect x="903.051" y="2746.080" width="89.775" height="89.783" fill="#cccccc"/>
    <rect x="992.827" y="2746.080" width="89.781" height="89.783" fill="#cccccc"/>
    <rect x="1082.608" y="2746.080" width="89.777" height="89.783" fill="#cccccc"/>
    <rect x="1172.384" y="2746.080" width="89.782" height="89.783" fill="#cccccc"/>
    <rect x="1262.166" y="2746.080" width="89.777" height="89.783" fill="#cccccc"/>
    <rect x="723.487" y="2656.321" width="89.776" height="89.779" fill="#cccccc"/>
    <rect x="813.262" y="2566.540" width="89.781" height="89.769" fill="#999999"/>
    <rect x="723.483" y="2297.199" width="89.781" height="89.789" fill="#999999"/>
    <rect x="813.264" y="2297.199" width="89.781" height="89.789" fill="#999999"/>
    <rect x="903.046" y="2297.199" width="89.776" height="89.789" fill="#999999"/>
    <rect x="813.262" y="2386.980" width="89.782" height="89.789" fill="#999999"/>
    <rect x="633.705" y="2656.321" width="89.776" height="89.779" fill="#000000"/>
    <rect x="723.484" y="2207.419" width="89.781" height="89.774" fill="#000000"/>
    <rect x="813.265" y="2207.419" width="89.782" height="89.774" fill="#000000"/>
    <rect x="633.707" y="2297.199" width="89.776" height="89.789" fill="#000000"/>
    <rect x="992.822" y="2297.199" width="89.781" height="89.789" fill="#000000"/>
    <rect x="633.706" y="2386.980" width="89.776" height="89.789" fill="#000000"/>
    <rect x="903.044" y="2386.980" width="89.774" height="89.789" fill="#000000"/>
    <rect x="1262.156" y="2386.980" width="89.780" height="89.789" fill="#000000"/>
    <rect x="633.705" y="2476.760" width="89.776" height="89.769" fill="#000000"/>
    <rect x="813.262" y="2476.760" width="89.781" height="89.769" fill="#000000"/>
    <rect x="1262.157" y="2476.760" width="89.775" height="89.769" fill="#000000"/>
    <rect x="633.706" y="2566.540" width="89.775" height="89.769" fill="#000000"/>
    <rect x="903.043" y="2566.540" width="89.775" height="89.769" fill="#000000"/>
    <rect x="992.819" y="2566.540" width="89.781" height="89.769" fill="#000000"/>
    <rect x="1082.600" y="2566.540" width="89.775" height="89.769" fill="#000000"/>
    <rect x="1172.375" y="2566.540" width="89.781" height="89.769" fill="#000000"/>
    <rect x="1172.376" y="2656.321" width="89.780" height="89.779" fill="#000000"/>
    <rect x="723.486" y="2746.080" width="89.782" height="89.783" fill="#000000"/>
    <rect x="723.481" y="2386.980" width="89.780" height="89.789" fill="#cccccc"/>
    <rect x="723.481" y="2476.760" width="89.781" height="89.769" fill="#cccccc"/>
    <rect x="723.481" y="2566.540" width="89.781" height="89.769" fill="#cccccc"/>
    <rect x="1262.156" y="2566.540" width="89.775" height="89.769" fill="#cccccc"/>
    <rect x="813.262" y="2656.321" width="89.782" height="89.779" fill="#cccccc"/>
    <rect x="903.038" y="2656.321" width="89.782" height="89.779" fill="#cccccc"/>
    <rect x="992.820" y="2656.321" width="89.780" height="89.779" fill="#cccccc"/>
    <rect x="1082.600" y="2656.321" width="89.776" height="89.779" fill="#cccccc"/>
    <rect x="1262.156" y="2656.321" width="89.776" height="89.779" fill="#cccccc"/>
    <rect x="813.268" y="2746.080" width="89.782" height="89.783" fill="#cccccc"/>
    <rect x="903.051" y="2746.080" width="89.775" height="89.783" fill="#cccccc"/>
    <rect x="992.827" y="2746.080" width="89.781" height="89.783" fill="#cccccc"/>
    <rect x="1082.608" y="2746.080" width="89.777" height="89.783" fill="#cccccc"/>
    <rect x="1172.384" y="2746.080" width="89.782" height="89.783" fill="#cccccc"/>
    <rect x="1262.166" y="2746.080" width="89.777" height="89.783" fill="#cccccc"/>
    <rect x="723.487" y="2656.321" width="89.776" height="89.779" fill="#cccccc"/>
    <rect x="813.262" y="2566.540" width="89.781" height="89.769" fill="#999999"/>
    <rect x="723.483" y="2297.199" width="89.781" height="89.789" fill="#999999"/>
    <rect x="813.264" y="2297.199" width="89.781" height="89.789" fill="#999999"/>
    <rect x="903.046" y="2297.199" width="89.776" height="89.789" fill="#999999"/>
    <rect x="813.262" y="2386.980" width="89.782" height="89.789" fill="#999999"/>
    <rect x="633.705" y="2656.321" width="89.776" height="89.779" fill="#000000"/>
    <rect x="723.484" y="2207.419" width="89.781" height="89.774" fill="#000000"/>
    <rect x="813.265" y="2207.419" width="89.782" height="89.774" fill="#000000"/>
    <rect x="633.707" y="2297.199" width="89.776" height="89.789" fill="#000000"/>
    <rect x="992.822" y="2297.199" width="89.781" height="89.789" fill="#000000"/>
    <rect x="633.706" y="2386.980" width="89.776" height="89.789" fill="#000000"/>
    <rect x="903.044" y="2386.980" width="89.774" height="89.789" fill="#000000"/>
    <rect x="1262.156" y="2386.980" width="89.780" height="89.789" fill="#000000"/>
    <rect x="633.705" y="2476.760" width="89.776" height="89.769" fill="#000000"/>
    <rect x="813.262" y="2476.760" width="89.781" height="89.769" fill="#000000"/>
    <rect x="1262.157" y="2476.760" width="89.775" height="89.769" fill="#000000"/>
    <rect x="633.706" y="2566.540" width="89.775" height="89.769" fill="#000000"/>
    <rect x="903.043" y="2566.540" width="89.775" height="89.769" fill="#000000"/>
    <rect x="992.819" y="2566.540" width="89.781" height="89.769" fill="#000000"/>
    <rect x="1082.600" y="2566.540" width="89.775" height="89.769" fill="#000000"/>
    <rect x="1172.375" y="2566.540" width="89.781" height="89.769" fill="#000000"/>
    <rect x="1172.376" y="2656.321" width="89.780" height="89.779" fill="#000000"/>
    <rect x="723.486" y="2746.080" width="89.782" height="89.783" fill="#000000"/>
    <rect x="723.481" y="2386.980" width="89.780" height="89.789" fill="#cccccc"/>
    <rect x="723.481" y="2476.760" width="89.781" height="89.769" fill="#cccccc"/>
    <rect x="723.481" y="2566.540" width="89.781" height="89.769" fill="#cccccc"/>
    <rect x="1262.156" y="2566.540" width="89.775" height="89.769" fill="#cccccc"/>
    <rect x="813.262" y="2656.321" width="89.782" height="89.779" fill="#cccccc"/>
    <rect x="903.038" y="2656.321" width="89.782" height="89.779" fill="#cccccc"/>
    <rect x="992.820" y="2656.321" width="89.780" height="89.779" fill="#cccccc"/>
    <rect x="1082.600" y="2656.321" width="89.776" height="89.779" fill="#cccccc"/>
    <rect x="1262.156" y="2656.321" width="89.776" height="89.779" fill="#cccccc"/>
    <rect x="813.268" y="2746.080" width="89.782" height="89.783" fill="#cccccc"/>
    <rect x="903.051" y="2746.080" width="89.775" height="89.783" fill="#cccccc"/>
    <rect x="992.827" y="2746.080" width="89.781" height="89.783" fill="#cccccc"/>
    <rect x="1082.608" y="2746.080" width="89.777" height="89.783" fill="#cccccc"/>
    <rect x="1172.384" y="2746.080" width="89.782" height="89.783" fill="#cccccc"/>
    <rect x="1262.166" y="2746.080" width="89.777" height="89.783" fill="#cccccc"/>
    <rect x="723.487" y="2656.321" width="89.776" height="89.779" fill="#cccccc"/>
  </g>
</svg>
