<?xml version="1.0" encoding="UTF-8" standalone="no"?>
<svg xmlns:dc="http://purl.org/dc/elements/1.1/"
     xmlns:cc="http://creativecommons.org/ns#"
     xmlns:rdf="http://www.w3.org/1999/02/22-rdf-syntax-ns#"
     xmlns="http://www.w3.org/2000/svg"
     viewBox="254.59 1558.96 1117.35 668.46"
     width="1117.35" height="668.46"
     id="rompy_bird" version="1.1">
  <!-- Rompy sprite: bird -->
  <!-- Original coords: x=275-1352, y=1579-2207 in 5000x5000 space -->
  <g id="pixels">
    <rect x="633.709" y="1668.736" width="89.777" height="89.781" fill="#ccaaff"/>
    <rect x="633.710" y="1758.517" width="89.775" height="89.787" fill="#ccaaff"/>
    <rect x="723.485" y="1758.517" width="89.783" height="89.787" fill="#ccaaff"/>
    <rect x="903.048" y="1668.736" width="89.777" height="89.781" fill="#ebc58e"/>
    <rect x="992.825" y="1668.736" width="89.783" height="89.781" fill="#ebc58e"/>
    <rect x="1082.608" y="1668.736" width="89.777" height="89.781" fill="#ebc58e"/>
    <rect x="454.152" y="1758.517" width="89.777" height="89.787" fill="#ebc58e"/>
    <rect x="903.049" y="1758.517" width="89.775" height="89.787" fill="#ebc58e"/>
    <rect x="1082.608" y="1758.517" width="89.775" height="89.787" fill="#ebc58e"/>
    <rect x="543.928" y="1848.297" width="89.781" height="89.775" fill="#ebc58e"/>
    <rect x="903.050" y="1848.297" width="89.775" height="89.775" fill="#ebc58e"/>
    <rect x="992.825" y="1848.297" width="89.783" height="89.775" fill="#ebc58e"/>
    <rect x="1082.608" y="1848.297" width="89.775" height="89.775" fill="#ebc58e"/>
    <rect x="633.711" y="1938.078" width="89.776" height="89.773" fill="#ebc58e"/>
    <rect x="723.487" y="1938.078" width="89.780" height="89.773" fill="#ebc58e"/>
    <rect x="813.267" y="1938.078" width="89.782" height="89.773" fill="#ebc58e"/>
    <rect x="903.044" y="1938.078" width="89.782" height="89.773" fill="#ebc58e"/>
    <rect x="992.825" y="1938.078" width="89.782" height="89.773" fill="#ebc58e"/>
    <rect x="633.710" y="1578.956" width="89.776" height="89.787" fill="#2b0000"/>
    <rect x="903.049" y="1578.956" width="89.776" height="89.787" fill="#2b0000"/>
    <rect x="992.825" y="1578.956" width="89.782" height="89.787" fill="#2b0000"/>
    <rect x="1082.607" y="1578.956" width="89.776" height="89.787" fill="#2b0000"/>
    <rect x="274.594" y="1668.736" width="89.777" height="89.781" fill="#2b0000"/>
    <rect x="364.371" y="1668.736" width="89.781" height="89.781" fill="#2b0000"/>
    <rect x="454.151" y="1668.736" width="89.777" height="89.781" fill="#2b0000"/>
    <rect x="543.928" y="1668.736" width="89.781" height="89.781" fill="#2b0000"/>
    <rect x="723.485" y="1668.736" width="89.783" height="89.781" fill="#2b0000"/>
    <rect x="813.268" y="1668.736" width="89.781" height="89.781" fill="#2b0000"/>
    <rect x="1172.384" y="1668.736" width="89.781" height="89.781" fill="#2b0000"/>
    <rect x="364.371" y="1758.517" width="89.781" height="89.787" fill="#2b0000"/>
    <rect x="543.929" y="1758.517" width="89.781" height="89.787" fill="#2b0000"/>
    <rect x="813.268" y="1758.517" width="89.781" height="89.787" fill="#2b0000"/>
    <rect x="992.827" y="1758.517" width="89.781" height="89.787" fill="#2b0000"/>
    <rect x="1172.383" y="1758.517" width="89.783" height="89.787" fill="#2b0000"/>
    <rect x="1262.166" y="1758.517" width="89.775" height="89.787" fill="#2b0000"/>
    <rect x="454.153" y="1848.297" width="89.775" height="89.775" fill="#2b0000"/>
    <rect x="633.709" y="1848.297" width="89.777" height="89.775" fill="#2b0000"/>
    <rect x="723.486" y="1848.297" width="89.781" height="89.775" fill="#2b0000"/>
    <rect x="813.267" y="1848.297" width="89.783" height="89.775" fill="#2b0000"/>
    <rect x="1172.383" y="1848.297" width="89.783" height="89.775" fill="#2b0000"/>
    <rect x="543.929" y="1938.078" width="89.782" height="89.773" fill="#2b0000"/>
    <rect x="1082.607" y="1938.078" width="89.776" height="89.773" fill="#2b0000"/>
    <rect x="633.708" y="2027.858" width="89.782" height="89.784" fill="#2b0000"/>
    <rect x="723.490" y="2027.858" width="89.775" height="89.784" fill="#2b0000"/>
    <rect x="813.266" y="2027.858" width="89.782" height="89.784" fill="#2b0000"/>
    <rect x="903.048" y="2027.858" width="89.775" height="89.784" fill="#2b0000"/>
    <rect x="992.823" y="2027.858" width="89.782" height="89.784" fill="#2b0000"/>
    <rect x="723.485" y="2117.638" width="89.781" height="89.778" fill="#2b0000"/>
    <rect x="903.047" y="2117.638" width="89.776" height="89.778" fill="#2b0000"/>
    <rect x="633.709" y="1668.736" width="89.777" height="89.781" fill="#ccaaff"/>
    <rect x="633.710" y="1758.517" width="89.775" height="89.787" fill="#ccaaff"/>
    <rect x="723.485" y="1758.517" width="89.783" height="89.787" fill="#ccaaff"/>
    <rect x="903.048" y="1668.736" width="89.777" height="89.781" fill="#ebc58e"/>
    <rect x="992.825" y="1668.736" width="89.783" height="89.781" fill="#ebc58e"/>
    <rect x="1082.608" y="1668.736" width="89.777" height="89.781" fill="#ebc58e"/>
    <rect x="454.152" y="1758.517" width="89.777" height="89.787" fill="#ebc58e"/>
    <rect x="903.049" y="1758.517" width="89.775" height="89.787" fill="#ebc58e"/>
    <rect x="1082.608" y="1758.517" width="89.775" height="89.787" fill="#ebc58e"/>
    <rect x="543.928" y="1848.297" width="89.781" height="89.775" fill="#ebc58e"/>
    <rect x="903.050" y="1848.297" width="89.775" height="89.775" fill="#ebc58e"/>
    <rect x="992.825" y="1848.297" width="89.783" height="89.775" fill="#ebc58e"/>
    <rect x="1082.608" y="1848.297" width="89.775" height="89.775" fill="#ebc58e"/>
    <rect x="633.711" y="1938.078" width="89.776" height="89.773" fill="#ebc58e"/>
    <rect x="723.487" y="1938.078" width="89.780" height="89.773" fill="#ebc58e"/>
    <rect x="813.267" y="1938.078" width="89.782" height="89.773" fill="#ebc58e"/>
    <rect x="903.044" y="1938.078" width="89.782" height="89.773" fill="#ebc58e"/>
    <rect x="992.825" y="1938.078" width="89.782" height="89.773" fill="#ebc58e"/>
    <rect x="633.710" y="1578.956" width="89.776" height="89.787" fill="#2b0000"/>
    <rect x="903.049" y="1578.956" width="89.776" height="89.787" fill="#2b0000"/>
    <rect x="992.825" y="1578.956" width="89.782" height="89.787" fill="#2b0000"/>
    <rect x="1082.607" y="1578.956" width="89.776" height="89.787" fill="#2b0000"/>
    <rect x="274.594" y="1668.736" width="89.777" height="89.781" fill="#2b0000"/>
    <rect x="364.371" y="1668.736" width="89.781" height="89.781" fill="#2b0000"/>
    <rect x="454.151" y="1668.736" width="89.777" height="89.781" fill="#2b0000"/>
    <rect x="543.928" y="1668.736" width="89.781" height="89.781" fill="#2b0000"/>
    <rect x="723.485" y="1668.736" width="89.783" height="89.781" fill="#2b0000"/>
    <rect x="813.268" y="1668.736" width="89.781" height="89.781" fill="#2b0000"/>
    <rect x="1172.384" y="1668.736" width="89.781" height="89.781" fill="#2b0000"/>
    <rect x="364.371" y="1758.517" width="89.781" height="89.787" fill="#2b0000"/>
    <rect x="543.929" y="1758.517" width="89.781" height="89.787" fill="#2b0000"/>
    <rect x="813.268" y="1758.517" width="89.781" height="89.787" fill="#2b0000"/>
    <rect x="992.827" y="1758.517" width="89.781" height="89.787" fill="#2b0000"/>
    <rect x="1172.383" y="1758.517" width="89.783" height="89.787" fill="#2b0000"/>
    <rect x="1262.166" y="1758.517" width="89.775" height="89.787" fill="#2b0000"/>
    <rect x="454.153" y="1848.297" width="89.775" height="89.775" fill="#2b0000"/>
    <rect x="633.709" y="1848.297" width="89.777" height="89.775" fill="#2b0000"/>
    <rect x="723.486" y="1848.297" width="89.781" height="89.775" fill="#2b0000"/>
    <rect x="813.267" y="1848.297" width="89.783" height="89.775" fill="#2b0000"/>
    <rect x="1172.383" y="1848.297" width="89.783" height="89.775" fill="#2b0000"/>
    <rect x="543.929" y="1938.078" width="89.782" height="89.773" fill="#2b0000"/>
    <rect x="1082.607" y="1938.078" width="89.776" height="89.773" fill="#2b0000"/>
    <rect x="633.708" y="2027.858" width="89.782" height="89.784" fill="#2b0000"/>
    <rect x="723.490" y="2027.858" width="89.775" height="89.784" fill="#2b0000"/>
    <rect x="813.266" y="2027.858" width="89.782" height="89.784" fill="#2b0000"/>
    <rect x="903.048" y="2027.858" width="89.775" height="89.784" fill="#2b0000"/>
    <rect x="992.823" y="2027.858" width="89.782" height="89.784" fill="#2b0000"/>
    <rect x="723.485" y="2117.638" width="89.781" height="89.778" fill="#2b0000"/>
    <rect x="903.047" y="2117.638" width="89.776" height="89.778" fill="#2b0000"/>
    <rect x="633.709" y="1668.736" width="89.777" height="89.781" fill="#ccaaff"/>
    <rect x="633.710" y="1758.517" width="89.775" height="89.787" fill="#ccaaff"/>
    <rect x="723.485" y="1758.517" width="89.783" height="89.787" fill="#ccaaff"/>
    <rect x="903.048" y="1668.736" width="89.777" height="89.781" fill="#ebc58e"/>
    <rect x="992.825" y="1668.736" width="89.783" height="89.781" fill="#ebc58e"/>
    <rect x="1082.608" y="1668.736" width="89.777" height="89.781" fill="#ebc58e"/>
    <rect x="454.152" y="1758.517" width="89.777" height="89.787" fill="#ebc58e"/>
    <rect x="903.049" y="1758.517" width="89.775" height="89.787" fill="#ebc58e"/>
    <rect x="1082.608" y="1758.517" width="89.775" height="89.787" fill="#ebc58e"/>
    <rect x="543.928" y="1848.297" width="89.781" height="89.775" fill="#ebc58e"/>
    <rect x="903.050" y="1848.297" width="89.775" height="89.775" fill="#ebc58e"/>
    <rect x="992.825" y="1848.297" width="89.783" height="89.775" fill="#ebc58e"/>
    <rect x="1082.608" y="1848.297" width="89.775" height="89.775" fill="#ebc58e"/>
    <rect x="633.711" y="1938.078" width="89.776" height="89.773" fill="#ebc58e"/>
    <rect x="723.487" y="1938.078" width="89.780" height="89.773" fill="#ebc58e"/>
    <rect x="813.267" y="1938.078" width="89.782" height="89.773" fill="#ebc58e"/>
    <rect x="903.044" y="1938.078" width="89.782" height="89.773" fill="#ebc58e"/>
    <rect x="992.825" y="1938.078" width="89.782" height="89.773" fill="#ebc58e"/>
    <rect x="633.710" y="1578.956" width="89.776" height="89.787" fill="#2b0000"/>
    <rect x="903.049" y="1578.956" width="89.776" height="89.787" fill="#2b0000"/>
    <rect x="992.825" y="1578.956" width="89.782" height="89.787" fill="#2b0000"/>
    <rect x="1082.607" y="1578.956" width="89.776" height="89.787" fill="#2b0000"/>
    <rect x="274.594" y="1668.736" width="89.777" height="89.781" fill="#2b0000"/>
    <rect x="364.371" y="1668.736" width="89.781" height="89.781" fill="#2b0000"/>
    <rect x="454.151" y="1668.736" width="89.777" height="89.781" fill="#2b0000"/>
    <rect x="543.928" y="1668.736" width="89.781" height="89.781" fill="#2b0000"/>
    <rect x="723.485" y="1668.736" width="89.783" height="89.781" fill="#2b0000"/>
    <rect x="813.268" y="1668.736" width="89.781" height="89.781" fill="#2b0000"/>
    <rect x="1172.384" y="1668.736" width="89.781" height="89.781" fill="#2b0000"/>
    <rect x="364.371" y="1758.517" width="89.781" height="89.787" fill="#2b0000"/>
    <rect x="543.929" y="1758.517" width="89.781" height="89.787" fill="#2b0000"/>
    <rect x="813.268" y="1758.517" width="89.781" height="89.787" fill="#2b0000"/>
    <rect x="992.827" y="1758.517" width="89.781" height="89.787" fill="#2b0000"/>
    <rect x="1172.383" y="1758.517" width="89.783" height="89.787" fill="#2b0000"/>
    <rect x="1262.166" y="1758.517" width="89.775" height="89.787" fill="#2b0000"/>
    <rect x="454.153" y="1848.297" width="89.775" height="89.775" fill="#2b0000"/>
    <rect x="633.709" y="1848.297" width="89.777" height="89.775" fill="#2b0000"/>
    <rect x="723.486" y="1848.297" width="89.781" height="89.775" fill="#2b0000"/>
    <rect x="813.267" y="1848.297" width="89.783" height="89.775" fill="#2b0000"/>
    <rect x="1172.383" y="1848.297" width="89.783" height="89.775" fill="#2b0000"/>
    <rect x="543.929" y="1938.078" width="89.782" height="89.773" fill="#2b0000"/>
    <rect x="1082.607" y="1938.078" width="89.776" height="89.773" fill="#2b0000"/>
    <rect x="633.708" y="2027.858" width="89.782" height="89.784" fill="#2b0000"/>
    <rect x="723.490" y="2027.858" width="89.775" height="89.784" fill="#2b0000"/>
    <rect x="813.266" y="2027.858" width="89.782" height="89.784" fill="#2b0000"/>
    <rect x="903.048" y="2027.858" width="89.775" height="89.784" fill="#2b0000"/>
    <rect x="992.823" y="2027.858" width="89.782" height="89.784" fill="#2b0000"/>
    <rect x="723.485" y="2117.638" width="89.781" height="89.778" fill="#2b0000"/>
    <rect x="903.047" y="2117.638" width="89.776" height="89.778" fill="#2b0000"/>
  </g>
</svg>
